# xmcd
#
# Track frame offsets:
#	150
#	16112
#	31470
#	44880
#	60194
#	85477
#	112680
#	139430
#	162486
#	185596
#	201657
#	230231
#	244684
#	258500
#	279045
#	297440
#	314452
#
# Disc length: 4368 seconds
#
# Revision: 0
# Processed by: cddbd v1.4PL0 Copyright (c) Steve Scherf et al.
# Submitted via: audiograbber 1.81.02
#
DISCID=00110e11
DTITLE=Leonard Cohen - Songs Of Love And Hate
DYEAR=1900
DGENRE=
TTITLE0=Sisters Of Mercy
TTITLE1=Bird On A Wire
TTITLE2=Lady Midnight
TTITLE3=The Partisan
TTITLE4=Love Calls You By Your Name
TTITLE5=Dress Rehearsal Rag
TTITLE6=Last Year´s Man
TTITLE7=Famous Blue Raincoat
TTITLE8=The Stranger Song
TTITLE9=Story Of Isaac
TTITLE10=Joan Of Arc
TTITLE11=A Bunch Of Lonesome Heros
TTITLE12=Chelsea Hotel No 2
TTITLE13=Stories Of The Street
TTITLE14=Take This Longing
TTITLE15=Suzanne
TTITLE16=Hey, That´s No Way To Say Goodbye
EXTD=
EXTT0=
EXTT1=
EXTT2=
EXTT3=
EXTT4=
EXTT5=
EXTT6=
EXTT7=
EXTT8=
EXTT9=
EXTT10=
EXTT11=
EXTT12=
EXTT13=
EXTT14=
EXTT15=
EXTT16=
PLAYORDER=
